STARTFONT 2.1
COMMENT
COMMENT  Copyright (c) 1999, Thomas A. Fine
COMMENT
COMMENT  License to copy and distribute for both commercial and
COMMENT  non-commercial use is herby granted, provided this notice
COMMENT  is preserved.
COMMENT
COMMENT  Email to my last name at head.cfa.harvard.edu
COMMENT  http://hea-www.harvard.edu/~fine/
COMMENT
COMMENT  Produced with bdfedit, a tcl/tk font editing program
COMMENT  written by Thomas A. Fine
COMMENT
FONT -Fine-Radon-Medium-R-Normal--13-130-72-72-p-65--ascii
SIZE 13 72 72
FONTBOUNDINGBOX 8 12 0 -2
STARTPROPERTIES 10
FOUNDRY "Fine"
FAMILY_NAME ""
WEIGHT_NAME "Medium"
SLANT "R"
SETWIDTH_NAME "Normal"
SPACING "c"
CHARSET_REGISTRY "ISO-8859"
CHARSET_ENCODING "1"
FONT_ASCENT  10
FONT_DESCENT 2
ENDPROPERTIES
CHARS 190
STARTCHAR C040
ENCODING 32
SWIDTH 615 0
DWIDTH 8 0
BBX 8 12 0 -2
BITMAP
0000
0000
0000
0000
0000
0000
0000
0000
0000
0000
0000
0000
ENDCHAR
STARTCHAR C041
ENCODING 33
SWIDTH 615 0
DWIDTH 8 0
BBX 8 12 0 -2
BITMAP
0000
1000
1000
1000
1000
1000
1000
0000
1000
1000
0000
0000
ENDCHAR
STARTCHAR C042
ENCODING 34
SWIDTH 615 0
DWIDTH 8 0
BBX 8 12 0 -2
BITMAP
0000
2800
2800
2800
2800
0000
0000
0000
0000
0000
0000
0000
ENDCHAR
STARTCHAR C043
ENCODING 35
SWIDTH 615 0
DWIDTH 8 0
BBX 8 12 0 -2
BITMAP
0000
4400
4400
ba00
4400
4400
4400
ba00
4400
4400
0000
0000
ENDCHAR
STARTCHAR C044
ENCODING 36
SWIDTH 615 0
DWIDTH 8 0
BBX 8 12 0 -2
BITMAP
1000
7e00
8000
9000
8000
7c00
0200
1200
0200
fc00
1000
0000
ENDCHAR
STARTCHAR C045
ENCODING 37
SWIDTH 615 0
DWIDTH 8 0
BBX 8 12 0 -2
BITMAP
0000
6200
9200
9400
6800
1000
2c00
5200
9200
8c00
0000
0000
ENDCHAR
STARTCHAR C046
ENCODING 38
SWIDTH 615 0
DWIDTH 8 0
BBX 8 12 0 -2
BITMAP
0000
6000
9000
9000
4000
2000
9000
8a00
8400
7a00
0000
0000
ENDCHAR
STARTCHAR C047
ENCODING 39
SWIDTH 615 0
DWIDTH 8 0
BBX 8 12 0 -2
BITMAP
0000
1000
1000
1000
6000
0000
0000
0000
0000
0000
0000
0000
ENDCHAR
STARTCHAR C050
ENCODING 40
SWIDTH 615 0
DWIDTH 8 0
BBX 8 12 0 -2
BITMAP
0000
0800
1000
1000
1000
1000
1000
1000
1000
0800
0000
0000
ENDCHAR
STARTCHAR C051
ENCODING 41
SWIDTH 615 0
DWIDTH 8 0
BBX 8 12 0 -2
BITMAP
0000
1000
0800
0800
0800
0800
0800
0800
0800
1000
0000
0000
ENDCHAR
STARTCHAR C052
ENCODING 42
SWIDTH 615 0
DWIDTH 8 0
BBX 8 12 0 -2
BITMAP
0000
1000
9200
5400
1000
1000
5400
9200
1000
0000
0000
0000
ENDCHAR
STARTCHAR C053
ENCODING 43
SWIDTH 615 0
DWIDTH 8 0
BBX 8 12 0 -2
BITMAP
0000
0000
1000
1000
1000
d600
1000
1000
1000
0000
0000
0000
ENDCHAR
STARTCHAR C054
ENCODING 44
SWIDTH 615 0
DWIDTH 8 0
BBX 8 12 0 -2
BITMAP
0000
0000
0000
0000
0000
0000
0000
0000
0800
0800
3000
0000
ENDCHAR
STARTCHAR C055
ENCODING 45
SWIDTH 615 0
DWIDTH 8 0
BBX 8 12 0 -2
BITMAP
0000
0000
0000
0000
0000
fe00
0000
0000
0000
0000
0000
0000
ENDCHAR
STARTCHAR C056
ENCODING 46
SWIDTH 615 0
DWIDTH 8 0
BBX 8 12 0 -2
BITMAP
0000
0000
0000
0000
0000
0000
0000
0000
1000
1000
0000
0000
ENDCHAR
STARTCHAR C057
ENCODING 47
SWIDTH 615 0
DWIDTH 8 0
BBX 8 12 0 -2
BITMAP
0000
0200
0200
0200
0400
0800
1000
2000
4000
8000
0000
0000
ENDCHAR
STARTCHAR C060
ENCODING 48
SWIDTH 615 0
DWIDTH 8 0
BBX 8 12 0 -2
BITMAP
0000
7c00
8200
8200
8200
ba00
8200
8200
8200
7c00
0000
0000
ENDCHAR
STARTCHAR C061
ENCODING 49
SWIDTH 615 0
DWIDTH 8 0
BBX 8 12 0 -2
BITMAP
0000
0800
2800
0800
0800
0800
0800
0800
0800
0800
0000
0000
ENDCHAR
STARTCHAR C062
ENCODING 50
SWIDTH 615 0
DWIDTH 8 0
BBX 8 12 0 -2
BITMAP
0000
fc00
0200
0200
0200
7c00
8000
8000
0000
fe00
0000
0000
ENDCHAR
STARTCHAR C063
ENCODING 51
SWIDTH 615 0
DWIDTH 8 0
BBX 8 12 0 -2
BITMAP
0000
fc00
0200
0200
0200
3c00
0200
0200
0200
fc00
0000
0000
ENDCHAR
STARTCHAR C064
ENCODING 52
SWIDTH 615 0
DWIDTH 8 0
BBX 8 12 0 -2
BITMAP
0000
8200
8200
8200
8200
7a00
0200
0200
0200
0200
0000
0000
ENDCHAR
STARTCHAR C065
ENCODING 53
SWIDTH 615 0
DWIDTH 8 0
BBX 8 12 0 -2
BITMAP
0000
fe00
0000
8000
8000
7c00
0200
0200
0200
fc00
0000
0000
ENDCHAR
STARTCHAR C066
ENCODING 54
SWIDTH 615 0
DWIDTH 8 0
BBX 8 12 0 -2
BITMAP
0000
7c00
8000
8000
bc00
8200
8200
8200
8200
7c00
0000
0000
ENDCHAR
STARTCHAR C067
ENCODING 55
SWIDTH 615 0
DWIDTH 8 0
BBX 8 12 0 -2
BITMAP
0000
fc00
0200
0200
0200
0200
0200
0200
0200
0200
0000
0000
ENDCHAR
STARTCHAR C070
ENCODING 56
SWIDTH 615 0
DWIDTH 8 0
BBX 8 12 0 -2
BITMAP
0000
7c00
8200
8200
8200
7c00
8200
8200
8200
7c00
0000
0000
ENDCHAR
STARTCHAR C071
ENCODING 57
SWIDTH 615 0
DWIDTH 8 0
BBX 8 12 0 -2
BITMAP
0000
7c00
8200
8200
8200
8200
7a00
0200
0200
fc00
0000
0000
ENDCHAR
STARTCHAR C072
ENCODING 58
SWIDTH 615 0
DWIDTH 8 0
BBX 8 12 0 -2
BITMAP
0000
0000
1000
1000
0000
0000
0000
1000
1000
0000
0000
0000
ENDCHAR
STARTCHAR C073
ENCODING 59
SWIDTH 615 0
DWIDTH 8 0
BBX 8 12 0 -2
BITMAP
0000
0000
1000
1000
0000
0000
0000
1000
1000
6000
0000
0000
ENDCHAR
STARTCHAR C074
ENCODING 60
SWIDTH 615 0
DWIDTH 8 0
BBX 8 12 0 -2
BITMAP
0000
0800
0800
1000
2000
4000
2000
1000
0800
0800
0000
0000
ENDCHAR
STARTCHAR C075
ENCODING 61
SWIDTH 615 0
DWIDTH 8 0
BBX 8 12 0 -2
BITMAP
0000
0000
0000
0000
fe00
0000
fe00
0000
0000
0000
0000
0000
ENDCHAR
STARTCHAR C076
ENCODING 62
SWIDTH 615 0
DWIDTH 8 0
BBX 8 12 0 -2
BITMAP
0000
1000
1000
0800
0400
0200
0400
0800
1000
1000
0000
0000
ENDCHAR
STARTCHAR C077
ENCODING 63
SWIDTH 615 0
DWIDTH 8 0
BBX 8 12 0 -2
BITMAP
0000
fc00
0200
0200
0200
1c00
2000
2000
0000
2000
0000
0000
ENDCHAR
STARTCHAR C100
ENCODING 64
SWIDTH 615 0
DWIDTH 8 0
BBX 8 12 0 -2
BITMAP
0000
7c00
8200
8a00
9200
9200
9200
8c00
8000
7c00
0000
0000
ENDCHAR
STARTCHAR C101
ENCODING 65
SWIDTH 615 0
DWIDTH 8 0
BBX 8 12 0 -2
BITMAP
0000
7c00
8200
8200
8200
8200
ba00
8200
8200
8200
0000
0000
ENDCHAR
STARTCHAR C102
ENCODING 66
SWIDTH 615 0
DWIDTH 8 0
BBX 8 12 0 -2
BITMAP
0000
bc00
8200
8200
8200
bc00
8200
8200
8200
bc00
0000
0000
ENDCHAR
STARTCHAR C103
ENCODING 67
SWIDTH 615 0
DWIDTH 8 0
BBX 8 12 0 -2
BITMAP
0000
7c00
8000
8000
8000
8000
8000
8000
8000
7c00
0000
0000
ENDCHAR
STARTCHAR C104
ENCODING 68
SWIDTH 615 0
DWIDTH 8 0
BBX 8 12 0 -2
BITMAP
0000
bc00
8200
8200
8200
8200
8200
8200
8200
bc00
0000
0000
ENDCHAR
STARTCHAR C105
ENCODING 69
SWIDTH 615 0
DWIDTH 8 0
BBX 8 12 0 -2
BITMAP
0000
7c00
8000
8000
8000
b800
8000
8000
8000
7c00
0000
0000
ENDCHAR
STARTCHAR C106
ENCODING 70
SWIDTH 615 0
DWIDTH 8 0
BBX 8 12 0 -2
BITMAP
0000
7c00
8000
8000
8000
b800
8000
8000
8000
8000
0000
0000
ENDCHAR
STARTCHAR C107
ENCODING 71
SWIDTH 615 0
DWIDTH 8 0
BBX 8 12 0 -2
BITMAP
0000
7c00
8000
8000
8000
8000
9a00
8200
8200
7c00
0000
0000
ENDCHAR
STARTCHAR C110
ENCODING 72
SWIDTH 615 0
DWIDTH 8 0
BBX 8 12 0 -2
BITMAP
0000
8200
8200
8200
8200
ba00
8200
8200
8200
8200
0000
0000
ENDCHAR
STARTCHAR C111
ENCODING 73
SWIDTH 615 0
DWIDTH 8 0
BBX 8 12 0 -2
BITMAP
0000
1000
1000
1000
1000
1000
1000
1000
1000
1000
0000
0000
ENDCHAR
STARTCHAR C112
ENCODING 74
SWIDTH 615 0
DWIDTH 8 0
BBX 8 12 0 -2
BITMAP
0000
0400
0400
0400
0400
0400
0400
0400
8400
7800
0000
0000
ENDCHAR
STARTCHAR C113
ENCODING 75
SWIDTH 615 0
DWIDTH 8 0
BBX 8 12 0 -2
BITMAP
0000
8200
8200
8200
8200
bc00
8200
8200
8200
8200
0000
0000
ENDCHAR
STARTCHAR C114
ENCODING 76
SWIDTH 615 0
DWIDTH 8 0
BBX 8 12 0 -2
BITMAP
0000
8000
8000
8000
8000
8000
8000
8000
8000
7e00
0000
0000
ENDCHAR
STARTCHAR C115
ENCODING 77
SWIDTH 615 0
DWIDTH 8 0
BBX 8 12 0 -2
BITMAP
0000
7c00
8200
9200
9200
9200
9200
8200
8200
8200
0000
0000
ENDCHAR
STARTCHAR C116
ENCODING 78
SWIDTH 615 0
DWIDTH 8 0
BBX 8 12 0 -2
BITMAP
0000
7c00
8200
8200
8200
8200
8200
8200
8200
8200
0000
0000
ENDCHAR
STARTCHAR C117
ENCODING 79
SWIDTH 615 0
DWIDTH 8 0
BBX 8 12 0 -2
BITMAP
0000
7c00
8200
8200
8200
8200
8200
8200
8200
7c00
0000
0000
ENDCHAR
STARTCHAR C120
ENCODING 80
SWIDTH 615 0
DWIDTH 8 0
BBX 8 12 0 -2
BITMAP
0000
bc00
8200
8200
8200
bc00
8000
8000
8000
8000
0000
0000
ENDCHAR
STARTCHAR C121
ENCODING 81
SWIDTH 615 0
DWIDTH 8 0
BBX 8 12 0 -2
BITMAP
0000
7c00
8200
8200
8200
8200
8a00
8a00
8200
7c00
0000
0000
ENDCHAR
STARTCHAR C122
ENCODING 82
SWIDTH 615 0
DWIDTH 8 0
BBX 8 12 0 -2
BITMAP
0000
bc00
8200
8200
8200
bc00
8200
8200
8200
8200
0000
0000
ENDCHAR
STARTCHAR C123
ENCODING 83
SWIDTH 615 0
DWIDTH 8 0
BBX 8 12 0 -2
BITMAP
0000
7e00
8000
8000
8000
7c00
0200
0200
0200
fc00
0000
0000
ENDCHAR
STARTCHAR C124
ENCODING 84
SWIDTH 615 0
DWIDTH 8 0
BBX 8 12 0 -2
BITMAP
0000
fe00
0000
1000
1000
1000
1000
1000
1000
1000
0000
0000
ENDCHAR
STARTCHAR C125
ENCODING 85
SWIDTH 615 0
DWIDTH 8 0
BBX 8 12 0 -2
BITMAP
0000
8200
8200
8200
8200
8200
8200
8200
8200
7c00
0000
0000
ENDCHAR
STARTCHAR C126
ENCODING 86
SWIDTH 615 0
DWIDTH 8 0
BBX 8 12 0 -2
BITMAP
0000
8200
8200
8200
8200
8200
8400
8800
9000
a000
0000
0000
ENDCHAR
STARTCHAR C127
ENCODING 87
SWIDTH 615 0
DWIDTH 8 0
BBX 8 12 0 -2
BITMAP
0000
8200
8200
8200
8200
9200
9200
9200
8200
7c00
0000
0000
ENDCHAR
STARTCHAR C130
ENCODING 88
SWIDTH 615 0
DWIDTH 8 0
BBX 8 12 0 -2
BITMAP
0000
8200
8200
8200
8200
7c00
8200
8200
8200
8200
0000
0000
ENDCHAR
STARTCHAR C131
ENCODING 89
SWIDTH 615 0
DWIDTH 8 0
BBX 8 12 0 -2
BITMAP
0000
8200
8200
8200
8200
7c00
0000
1000
1000
1000
0000
0000
ENDCHAR
STARTCHAR C132
ENCODING 90
SWIDTH 615 0
DWIDTH 8 0
BBX 8 12 0 -2
BITMAP
0000
fc00
0200
0400
0800
1000
2000
4000
8000
7e00
0000
0000
ENDCHAR
STARTCHAR C133
ENCODING 91
SWIDTH 615 0
DWIDTH 8 0
BBX 8 12 0 -2
BITMAP
0000
1c00
2000
2000
2000
2000
2000
2000
2000
1c00
0000
0000
ENDCHAR
STARTCHAR C134
ENCODING 92
SWIDTH 615 0
DWIDTH 8 0
BBX 8 12 0 -2
BITMAP
0000
8000
8000
8000
4000
2000
1000
0800
0400
0200
0000
0000
ENDCHAR
STARTCHAR C135
ENCODING 93
SWIDTH 615 0
DWIDTH 8 0
BBX 8 12 0 -2
BITMAP
0000
3800
0400
0400
0400
0400
0400
0400
0400
3800
0000
0000
ENDCHAR
STARTCHAR C136
ENCODING 94
SWIDTH 615 0
DWIDTH 8 0
BBX 8 12 0 -2
BITMAP
0000
3800
4400
4400
0000
0000
0000
0000
0000
0000
0000
0000
ENDCHAR
STARTCHAR C137
ENCODING 95
SWIDTH 615 0
DWIDTH 8 0
BBX 8 12 0 -2
BITMAP
0000
0000
0000
0000
0000
0000
0000
0000
0000
0000
ff00
0000
ENDCHAR
STARTCHAR C140
ENCODING 96
SWIDTH 615 0
DWIDTH 8 0
BBX 8 12 0 -2
BITMAP
0000
0800
0800
0800
0600
0000
0000
0000
0000
0000
0000
0000
ENDCHAR
STARTCHAR C141
ENCODING 97
SWIDTH 615 0
DWIDTH 8 0
BBX 8 12 0 -2
BITMAP
0000
0000
0000
0000
3c00
0200
3a00
4200
4200
3c00
0000
0000
ENDCHAR
STARTCHAR C142
ENCODING 98
SWIDTH 615 0
DWIDTH 8 0
BBX 8 12 0 -2
BITMAP
0000
0000
4000
4000
5c00
4200
4200
4200
4200
3c00
0000
0000
ENDCHAR
STARTCHAR C143
ENCODING 99
SWIDTH 615 0
DWIDTH 8 0
BBX 8 12 0 -2
BITMAP
0000
0000
0000
0000
3c00
4000
4000
4000
4000
3c00
0000
0000
ENDCHAR
STARTCHAR C144
ENCODING 100
SWIDTH 615 0
DWIDTH 8 0
BBX 8 12 0 -2
BITMAP
0000
0000
0200
0200
3a00
4200
4200
4200
4200
3c00
0000
0000
ENDCHAR
STARTCHAR C145
ENCODING 101
SWIDTH 615 0
DWIDTH 8 0
BBX 8 12 0 -2
BITMAP
0000
0000
0000
0000
3c00
4200
4200
5c00
4000
3c00
0000
0000
ENDCHAR
STARTCHAR C146
ENCODING 102
SWIDTH 615 0
DWIDTH 8 0
BBX 8 12 0 -2
BITMAP
0000
0000
0c00
1000
1000
1000
5400
1000
1000
1000
0000
0000
ENDCHAR
STARTCHAR C147
ENCODING 103
SWIDTH 615 0
DWIDTH 8 0
BBX 8 12 0 -2
BITMAP
0000
0000
0000
0000
3c00
4200
4200
4200
4200
3a00
0200
3c00
ENDCHAR
STARTCHAR C150
ENCODING 104
SWIDTH 615 0
DWIDTH 8 0
BBX 8 12 0 -2
BITMAP
0000
0000
4000
4000
5c00
4200
4200
4200
4200
4200
0000
0000
ENDCHAR
STARTCHAR C151
ENCODING 105
SWIDTH 615 0
DWIDTH 8 0
BBX 8 12 0 -2
BITMAP
0000
0000
0800
0000
0800
0800
0800
0800
0800
0800
0000
0000
ENDCHAR
STARTCHAR C152
ENCODING 106
SWIDTH 615 0
DWIDTH 8 0
BBX 8 12 0 -2
BITMAP
0000
0000
0800
0000
0800
0800
0800
0800
0800
0800
0800
3000
ENDCHAR
STARTCHAR C153
ENCODING 107
SWIDTH 615 0
DWIDTH 8 0
BBX 8 12 0 -2
BITMAP
0000
0000
4000
4000
4200
4200
5c00
4200
4200
4200
0000
0000
ENDCHAR
STARTCHAR C154
ENCODING 108
SWIDTH 615 0
DWIDTH 8 0
BBX 8 12 0 -2
BITMAP
0000
0000
0800
0800
0800
0800
0800
0800
0800
0800
0000
0000
ENDCHAR
STARTCHAR C155
ENCODING 109
SWIDTH 615 0
DWIDTH 8 0
BBX 8 12 0 -2
BITMAP
0000
0000
0000
0000
7c00
8200
9200
9200
9200
9200
0000
0000
ENDCHAR
STARTCHAR C156
ENCODING 110
SWIDTH 615 0
DWIDTH 8 0
BBX 8 12 0 -2
BITMAP
0000
0000
0000
0000
3c00
4200
4200
4200
4200
4200
0000
0000
ENDCHAR
STARTCHAR C157
ENCODING 111
SWIDTH 615 0
DWIDTH 8 0
BBX 8 12 0 -2
BITMAP
0000
0000
0000
0000
3c00
4200
4200
4200
4200
3c00
0000
0000
ENDCHAR
STARTCHAR C160
ENCODING 112
SWIDTH 615 0
DWIDTH 8 0
BBX 8 12 0 -2
BITMAP
0000
0000
0000
0000
3c00
4200
4200
4200
4200
5c00
4000
4000
ENDCHAR
STARTCHAR C161
ENCODING 113
SWIDTH 615 0
DWIDTH 8 0
BBX 8 12 0 -2
BITMAP
0000
0000
0000
0000
3c00
4200
4200
4200
4200
3a00
0200
0200
ENDCHAR
STARTCHAR C162
ENCODING 114
SWIDTH 615 0
DWIDTH 8 0
BBX 8 12 0 -2
BITMAP
0000
0000
0000
0000
0c00
1000
1000
1000
1000
1000
0000
0000
ENDCHAR
STARTCHAR C163
ENCODING 115
SWIDTH 615 0
DWIDTH 8 0
BBX 8 12 0 -2
BITMAP
0000
0000
0000
0000
3e00
4000
3c00
0200
0200
7c00
0000
0000
ENDCHAR
STARTCHAR C164
ENCODING 116
SWIDTH 615 0
DWIDTH 8 0
BBX 8 12 0 -2
BITMAP
0000
0000
1000
1000
1000
5400
1000
1000
1000
0c00
0000
0000
ENDCHAR
STARTCHAR C165
ENCODING 117
SWIDTH 615 0
DWIDTH 8 0
BBX 8 12 0 -2
BITMAP
0000
0000
0000
0000
4200
4200
4200
4200
4200
3c00
0000
0000
ENDCHAR
STARTCHAR C166
ENCODING 118
SWIDTH 615 0
DWIDTH 8 0
BBX 8 12 0 -2
BITMAP
0000
0000
0000
0000
4200
4200
4200
4400
4800
5000
0000
0000
ENDCHAR
STARTCHAR C167
ENCODING 119
SWIDTH 615 0
DWIDTH 8 0
BBX 8 12 0 -2
BITMAP
0000
0000
0000
0000
9200
9200
9200
9200
8200
7c00
0000
0000
ENDCHAR
STARTCHAR C170
ENCODING 120
SWIDTH 615 0
DWIDTH 8 0
BBX 8 12 0 -2
BITMAP
0000
0000
0000
0000
4200
4200
3c00
4200
4200
4200
0000
0000
ENDCHAR
STARTCHAR C171
ENCODING 121
SWIDTH 615 0
DWIDTH 8 0
BBX 8 12 0 -2
BITMAP
0000
0000
0000
0000
4200
4200
4200
4200
4200
3a00
0200
3c00
ENDCHAR
STARTCHAR C172
ENCODING 122
SWIDTH 615 0
DWIDTH 8 0
BBX 8 12 0 -2
BITMAP
0000
0000
0000
0000
7c00
0200
0c00
3000
4000
3e00
0000
0000
ENDCHAR
STARTCHAR C173
ENCODING 123
SWIDTH 615 0
DWIDTH 8 0
BBX 8 12 0 -2
BITMAP
0000
1c00
2000
2000
2000
4000
2000
2000
2000
1c00
0000
0000
ENDCHAR
STARTCHAR C174
ENCODING 124
SWIDTH 615 0
DWIDTH 8 0
BBX 8 12 0 -2
BITMAP
0000
1000
1000
1000
1000
0000
1000
1000
1000
1000
0000
0000
ENDCHAR
STARTCHAR C175
ENCODING 125
SWIDTH 615 0
DWIDTH 8 0
BBX 8 12 0 -2
BITMAP
0000
3800
0400
0400
0400
0200
0400
0400
0400
3800
0000
0000
ENDCHAR
STARTCHAR C176
ENCODING 126
SWIDTH 615 0
DWIDTH 8 0
BBX 8 12 0 -2
BITMAP
0000
0400
3800
4000
0000
0000
0000
0000
0000
0000
0000
0000
ENDCHAR
STARTCHAR C240
ENCODING 160
SWIDTH 615 0
DWIDTH 8 0
BBX 8 12 0 -2
BITMAP
0000
0000
0000
0000
0000
0000
0000
0000
0000
0000
0000
0000
ENDCHAR
STARTCHAR C241
ENCODING 161
SWIDTH 615 0
DWIDTH 8 0
BBX 8 12 0 -2
BITMAP
0000
1000
1000
0000
1000
1000
1000
1000
1000
1000
0000
0000
ENDCHAR
STARTCHAR C242
ENCODING 162
SWIDTH 615 0
DWIDTH 8 0
BBX 8 12 0 -2
BITMAP
0000
0000
0800
3e00
4000
4800
4800
4000
3e00
0800
0000
0000
ENDCHAR
STARTCHAR C243
ENCODING 163
SWIDTH 615 0
DWIDTH 8 0
BBX 8 12 0 -2
BITMAP
0000
1c00
2000
2000
2000
a800
2000
2000
4200
bc00
0000
0000
ENDCHAR
STARTCHAR C244
ENCODING 164
SWIDTH 615 0
DWIDTH 8 0
BBX 8 12 0 -2
BITMAP
0000
0000
8200
3800
4400
4400
4400
3800
8200
0000
0000
0000
ENDCHAR
STARTCHAR C245
ENCODING 165
SWIDTH 615 0
DWIDTH 8 0
BBX 8 12 0 -2
BITMAP
0000
8200
8200
8200
7c00
0000
5400
1000
5400
1000
0000
0000
ENDCHAR
STARTCHAR C246
ENCODING 166
SWIDTH 615 0
DWIDTH 8 0
BBX 8 12 0 -2
BITMAP
0000
1000
1000
1000
0000
0000
0000
1000
1000
1000
0000
0000
ENDCHAR
STARTCHAR C247
ENCODING 167
SWIDTH 615 0
DWIDTH 8 0
BBX 8 12 0 -2
BITMAP
0000
3800
4000
3800
4400
4400
4400
4400
3800
0400
3800
0000
ENDCHAR
STARTCHAR C250
ENCODING 168
SWIDTH 615 0
DWIDTH 8 0
BBX 8 12 0 -2
BITMAP
6c00
0000
0000
0000
0000
0000
0000
0000
0000
0000
0000
0000
ENDCHAR
STARTCHAR C251
ENCODING 169
SWIDTH 615 0
DWIDTH 8 0
BBX 8 12 0 -2
BITMAP
0000
7c00
8200
9a00
a200
a200
a200
9a00
8200
7c00
0000
0000
ENDCHAR
STARTCHAR C252
ENCODING 170
SWIDTH 615 0
DWIDTH 8 0
BBX 8 12 0 -2
BITMAP
3800
0400
3400
4400
3800
0000
7c00
0000
0000
0000
0000
0000
ENDCHAR
STARTCHAR C253
ENCODING 171
SWIDTH 615 0
DWIDTH 8 0
BBX 8 12 0 -2
BITMAP
0000
0000
0000
2400
4800
0000
4800
2400
0000
0000
0000
0000
ENDCHAR
STARTCHAR C254
ENCODING 172
SWIDTH 615 0
DWIDTH 8 0
BBX 8 12 0 -2
BITMAP
0000
0000
0000
0000
0000
fc00
0200
0200
0200
0000
0000
0000
ENDCHAR
STARTCHAR C255
ENCODING 173
SWIDTH 615 0
DWIDTH 8 0
BBX 8 12 0 -2
BITMAP
0000
0000
0000
0000
0000
7c00
0000
0000
0000
0000
0000
0000
ENDCHAR
STARTCHAR C256
ENCODING 174
SWIDTH 615 0
DWIDTH 8 0
BBX 8 12 0 -2
BITMAP
0000
7c00
8200
9200
aa00
b200
aa00
aa00
8200
7c00
0000
0000
ENDCHAR
STARTCHAR C257
ENCODING 175
SWIDTH 615 0
DWIDTH 8 0
BBX 8 12 0 -2
BITMAP
7c00
0000
0000
0000
0000
0000
0000
0000
0000
0000
0000
0000
ENDCHAR
STARTCHAR C260
ENCODING 176
SWIDTH 615 0
DWIDTH 8 0
BBX 8 12 0 -2
BITMAP
3800
4400
4400
4400
3800
0000
0000
0000
0000
0000
0000
0000
ENDCHAR
STARTCHAR C261
ENCODING 177
SWIDTH 615 0
DWIDTH 8 0
BBX 8 12 0 -2
BITMAP
0000
1000
1000
d600
1000
1000
0000
fe00
0000
0000
0000
0000
ENDCHAR
STARTCHAR C262
ENCODING 178
SWIDTH 615 0
DWIDTH 8 0
BBX 8 12 0 -2
BITMAP
3800
0400
1800
2000
3c00
0000
0000
0000
0000
0000
0000
0000
ENDCHAR
STARTCHAR C263
ENCODING 179
SWIDTH 615 0
DWIDTH 8 0
BBX 8 12 0 -2
BITMAP
3800
0400
3800
0400
3800
0000
0000
0000
0000
0000
0000
0000
ENDCHAR
STARTCHAR C264
ENCODING 180
SWIDTH 615 0
DWIDTH 8 0
BBX 8 12 0 -2
BITMAP
1800
2000
2000
0000
0000
0000
0000
0000
0000
0000
0000
0000
ENDCHAR
STARTCHAR C265
ENCODING 181
SWIDTH 615 0
DWIDTH 8 0
BBX 8 12 0 -2
BITMAP
0000
0000
0000
0000
4400
4400
4400
4400
4400
5800
4000
4000
ENDCHAR
STARTCHAR C266
ENCODING 182
SWIDTH 615 0
DWIDTH 8 0
BBX 8 12 0 -2
BITMAP
0000
7900
fa00
fa00
fa00
7a00
0200
0a00
0a00
0a00
0a00
0000
ENDCHAR
STARTCHAR C267
ENCODING 183
SWIDTH 615 0
DWIDTH 8 0
BBX 8 12 0 -2
BITMAP
0000
0000
0000
0000
0000
0000
1000
0000
0000
0000
0000
0000
ENDCHAR
STARTCHAR C270
ENCODING 184
SWIDTH 615 0
DWIDTH 8 0
BBX 8 12 0 -2
BITMAP
0000
0000
0000
0000
0000
0000
0000
0000
0000
0800
1000
0000
ENDCHAR
STARTCHAR C271
ENCODING 185
SWIDTH 615 0
DWIDTH 8 0
BBX 8 12 0 -2
BITMAP
0800
1800
0800
0800
0800
0000
0000
0000
0000
0000
0000
0000
ENDCHAR
STARTCHAR C272
ENCODING 186
SWIDTH 615 0
DWIDTH 8 0
BBX 8 12 0 -2
BITMAP
3800
4400
4400
3800
0000
7c00
0000
0000
0000
0000
0000
0000
ENDCHAR
STARTCHAR C273
ENCODING 187
SWIDTH 615 0
DWIDTH 8 0
BBX 8 12 0 -2
BITMAP
0000
0000
0000
4800
2400
0000
2400
4800
0000
0000
0000
0000
ENDCHAR
STARTCHAR C274
ENCODING 188
SWIDTH 615 0
DWIDTH 8 0
BBX 8 12 0 -2
BITMAP
2000
a200
2200
2200
2400
0800
1000
2900
4900
8500
0100
0100
ENDCHAR
STARTCHAR C275
ENCODING 189
SWIDTH 615 0
DWIDTH 8 0
BBX 8 12 0 -2
BITMAP
2000
a200
2200
2200
2400
0800
1000
2e00
4100
8600
0800
0f00
ENDCHAR
STARTCHAR C276
ENCODING 190
SWIDTH 615 0
DWIDTH 8 0
BBX 8 12 0 -2
BITMAP
e000
1200
e200
1200
e400
0800
1000
2900
4900
8500
0100
0100
ENDCHAR
STARTCHAR C277
ENCODING 191
SWIDTH 615 0
DWIDTH 8 0
BBX 8 12 0 -2
BITMAP
0000
0800
0000
0800
0800
7000
8000
8000
8000
7e00
0000
0000
ENDCHAR
STARTCHAR C300
ENCODING 192
SWIDTH 615 0
DWIDTH 8 0
BBX 8 12 0 -2
BITMAP
2000
1800
0000
7c00
8200
8200
8200
ba00
8200
8200
0000
0000
ENDCHAR
STARTCHAR C301
ENCODING 193
SWIDTH 615 0
DWIDTH 8 0
BBX 8 12 0 -2
BITMAP
0800
3000
0000
7c00
8200
8200
8200
ba00
8200
8200
0000
0000
ENDCHAR
STARTCHAR C302
ENCODING 194
SWIDTH 615 0
DWIDTH 8 0
BBX 8 12 0 -2
BITMAP
3800
4400
0000
7c00
8200
8200
8200
ba00
8200
8200
0000
0000
ENDCHAR
STARTCHAR C303
ENCODING 195
SWIDTH 615 0
DWIDTH 8 0
BBX 8 12 0 -2
BITMAP
3200
4c00
0000
7c00
8200
8200
8200
ba00
8200
8200
0000
0000
ENDCHAR
STARTCHAR C304
ENCODING 196
SWIDTH 615 0
DWIDTH 8 0
BBX 8 12 0 -2
BITMAP
6c00
0000
0000
7c00
8200
8200
8200
ba00
8200
8200
0000
0000
ENDCHAR
STARTCHAR C305
ENCODING 197
SWIDTH 615 0
DWIDTH 8 0
BBX 8 12 0 -2
BITMAP
3800
4400
3800
7c00
8200
8200
8200
ba00
8200
8200
0000
0000
ENDCHAR
STARTCHAR C306
ENCODING 198
SWIDTH 615 0
DWIDTH 8 0
BBX 8 12 0 -2
BITMAP
0000
7700
8800
8800
8800
8b00
a800
8800
8800
8b00
0000
0000
ENDCHAR
STARTCHAR C307
ENCODING 199
SWIDTH 615 0
DWIDTH 8 0
BBX 8 12 0 -2
BITMAP
0000
7c00
8000
8000
8000
8000
8000
8000
8000
6c00
1000
2000
ENDCHAR
STARTCHAR C310
ENCODING 200
SWIDTH 615 0
DWIDTH 8 0
BBX 8 12 0 -2
BITMAP
2000
1800
0000
7c00
8000
8000
b800
8000
8000
7c00
0000
0000
ENDCHAR
STARTCHAR C311
ENCODING 201
SWIDTH 615 0
DWIDTH 8 0
BBX 8 12 0 -2
BITMAP
0800
3000
0000
7c00
8000
8000
b800
8000
8000
7c00
0000
0000
ENDCHAR
STARTCHAR C312
ENCODING 202
SWIDTH 615 0
DWIDTH 8 0
BBX 8 12 0 -2
BITMAP
3800
4400
0000
7c00
8000
8000
b800
8000
8000
7c00
0000
0000
ENDCHAR
STARTCHAR C313
ENCODING 203
SWIDTH 615 0
DWIDTH 8 0
BBX 8 12 0 -2
BITMAP
6c00
0000
0000
7c00
8000
8000
b800
8000
8000
7c00
0000
0000
ENDCHAR
STARTCHAR C314
ENCODING 204
SWIDTH 615 0
DWIDTH 8 0
BBX 8 12 0 -2
BITMAP
2000
1800
0000
1000
1000
1000
1000
1000
1000
1000
0000
0000
ENDCHAR
STARTCHAR C315
ENCODING 205
SWIDTH 615 0
DWIDTH 8 0
BBX 8 12 0 -2
BITMAP
0800
3000
0000
1000
1000
1000
1000
1000
1000
1000
0000
0000
ENDCHAR
STARTCHAR C316
ENCODING 206
SWIDTH 615 0
DWIDTH 8 0
BBX 8 12 0 -2
BITMAP
3800
4400
0000
1000
1000
1000
1000
1000
1000
1000
0000
0000
ENDCHAR
STARTCHAR C317
ENCODING 207
SWIDTH 615 0
DWIDTH 8 0
BBX 8 12 0 -2
BITMAP
6c00
0000
0000
1000
1000
1000
1000
1000
1000
1000
0000
0000
ENDCHAR
STARTCHAR C320
ENCODING 208
SWIDTH 615 0
DWIDTH 8 0
BBX 8 12 0 -2
BITMAP
0000
bc00
8200
8200
8200
b200
8200
8200
8200
bc00
0000
0000
ENDCHAR
STARTCHAR C321
ENCODING 209
SWIDTH 615 0
DWIDTH 8 0
BBX 8 12 0 -2
BITMAP
3200
4c00
0000
7c00
8200
8200
8200
8200
8200
8200
0000
0000
ENDCHAR
STARTCHAR C322
ENCODING 210
SWIDTH 615 0
DWIDTH 8 0
BBX 8 12 0 -2
BITMAP
2000
1800
0000
7c00
8200
8200
8200
8200
8200
7c00
0000
0000
ENDCHAR
STARTCHAR C323
ENCODING 211
SWIDTH 615 0
DWIDTH 8 0
BBX 8 12 0 -2
BITMAP
0800
3000
0000
7c00
8200
8200
8200
8200
8200
7c00
0000
0000
ENDCHAR
STARTCHAR C324
ENCODING 212
SWIDTH 615 0
DWIDTH 8 0
BBX 8 12 0 -2
BITMAP
3800
4400
0000
7c00
8200
8200
8200
8200
8200
7c00
0000
0000
ENDCHAR
STARTCHAR C325
ENCODING 213
SWIDTH 615 0
DWIDTH 8 0
BBX 8 12 0 -2
BITMAP
3200
4c00
0000
7c00
8200
8200
8200
8200
8200
7c00
0000
0000
ENDCHAR
STARTCHAR C326
ENCODING 214
SWIDTH 615 0
DWIDTH 8 0
BBX 8 12 0 -2
BITMAP
6c00
0000
0000
7c00
8200
8200
8200
8200
8200
7c00
0000
0000
ENDCHAR
STARTCHAR C327
ENCODING 215
SWIDTH 615 0
DWIDTH 8 0
BBX 8 12 0 -2
BITMAP
0000
0000
0000
0000
4400
2800
0000
2800
4400
0000
0000
0000
ENDCHAR
STARTCHAR C330
ENCODING 216
SWIDTH 615 0
DWIDTH 8 0
BBX 8 12 0 -2
BITMAP
0000
7a00
8400
8200
8a00
9200
a200
8200
4200
bc00
0000
0000
ENDCHAR
STARTCHAR C331
ENCODING 217
SWIDTH 615 0
DWIDTH 8 0
BBX 8 12 0 -2
BITMAP
2000
1800
0000
8200
8200
8200
8200
8200
8200
7c00
0000
0000
ENDCHAR
STARTCHAR C332
ENCODING 218
SWIDTH 615 0
DWIDTH 8 0
BBX 8 12 0 -2
BITMAP
0800
3000
0000
8200
8200
8200
8200
8200
8200
7c00
0000
0000
ENDCHAR
STARTCHAR C333
ENCODING 219
SWIDTH 615 0
DWIDTH 8 0
BBX 8 12 0 -2
BITMAP
3800
4400
0000
8200
8200
8200
8200
8200
8200
7c00
0000
0000
ENDCHAR
STARTCHAR C334
ENCODING 220
SWIDTH 615 0
DWIDTH 8 0
BBX 8 12 0 -2
BITMAP
6c00
0000
0000
8200
8200
8200
8200
8200
8200
7c00
0000
0000
ENDCHAR
STARTCHAR C335
ENCODING 221
SWIDTH 615 0
DWIDTH 8 0
BBX 8 12 0 -2
BITMAP
0800
b200
8200
8200
8200
7c00
0000
1000
1000
1000
0000
0000
ENDCHAR
STARTCHAR C336
ENCODING 222
SWIDTH 615 0
DWIDTH 8 0
BBX 8 12 0 -2
BITMAP
0000
8000
8000
bc00
8200
8200
8200
bc00
8000
8000
0000
0000
ENDCHAR
STARTCHAR C337
ENCODING 223
SWIDTH 615 0
DWIDTH 8 0
BBX 8 12 0 -2
BITMAP
0000
3c00
4200
4200
4200
5c00
4200
4200
4200
9c00
0000
0000
ENDCHAR
STARTCHAR C340
ENCODING 224
SWIDTH 615 0
DWIDTH 8 0
BBX 8 12 0 -2
BITMAP
2000
1800
0000
0000
3c00
0200
3a00
4200
4200
3c00
0000
0000
ENDCHAR
STARTCHAR C341
ENCODING 225
SWIDTH 615 0
DWIDTH 8 0
BBX 8 12 0 -2
BITMAP
0800
3000
0000
0000
3c00
0200
3a00
4200
4200
3c00
0000
0000
ENDCHAR
STARTCHAR C342
ENCODING 226
SWIDTH 615 0
DWIDTH 8 0
BBX 8 12 0 -2
BITMAP
3800
4400
0000
0000
3c00
0200
3a00
4200
4200
3c00
0000
0000
ENDCHAR
STARTCHAR C343
ENCODING 227
SWIDTH 615 0
DWIDTH 8 0
BBX 8 12 0 -2
BITMAP
3200
4c00
0000
0000
3c00
0200
3a00
4200
4200
3c00
0000
0000
ENDCHAR
STARTCHAR C344
ENCODING 228
SWIDTH 615 0
DWIDTH 8 0
BBX 8 12 0 -2
BITMAP
6c00
0000
0000
0000
3c00
0200
3a00
4200
4200
3c00
0000
0000
ENDCHAR
STARTCHAR C345
ENCODING 229
SWIDTH 615 0
DWIDTH 8 0
BBX 8 12 0 -2
BITMAP
1800
2400
1800
0000
3c00
0200
3a00
4200
4200
3c00
0000
0000
ENDCHAR
STARTCHAR C346
ENCODING 230
SWIDTH 615 0
DWIDTH 8 0
BBX 8 12 0 -2
BITMAP
0000
0000
0000
0000
6c00
1200
5200
9400
9000
6e00
0000
0000
ENDCHAR
STARTCHAR C347
ENCODING 231
SWIDTH 615 0
DWIDTH 8 0
BBX 8 12 0 -2
BITMAP
0000
0000
0000
0000
3c00
4000
4000
4000
4000
3400
0800
1000
ENDCHAR
STARTCHAR C350
ENCODING 232
SWIDTH 615 0
DWIDTH 8 0
BBX 8 12 0 -2
BITMAP
2000
1800
0000
0000
3c00
4200
4200
5c00
4000
3c00
0000
0000
ENDCHAR
STARTCHAR C351
ENCODING 233
SWIDTH 615 0
DWIDTH 8 0
BBX 8 12 0 -2
BITMAP
0800
3000
0000
0000
3c00
4200
4200
5c00
4000
3c00
0000
0000
ENDCHAR
STARTCHAR C352
ENCODING 234
SWIDTH 615 0
DWIDTH 8 0
BBX 8 12 0 -2
BITMAP
3800
4400
0000
0000
3c00
4200
4200
5c00
4000
3c00
0000
0000
ENDCHAR
STARTCHAR C353
ENCODING 235
SWIDTH 615 0
DWIDTH 8 0
BBX 8 12 0 -2
BITMAP
6c00
0000
0000
0000
3c00
4200
4200
5c00
4000
3c00
0000
0000
ENDCHAR
STARTCHAR C354
ENCODING 236
SWIDTH 615 0
DWIDTH 8 0
BBX 8 12 0 -2
BITMAP
2000
1800
0000
1000
0000
1000
1000
1000
1000
1000
0000
0000
ENDCHAR
STARTCHAR C355
ENCODING 237
SWIDTH 615 0
DWIDTH 8 0
BBX 8 12 0 -2
BITMAP
0800
3000
0000
1000
0000
1000
1000
1000
1000
1000
0000
0000
ENDCHAR
STARTCHAR C356
ENCODING 238
SWIDTH 615 0
DWIDTH 8 0
BBX 8 12 0 -2
BITMAP
3800
4400
0000
1000
0000
1000
1000
1000
1000
1000
0000
0000
ENDCHAR
STARTCHAR C357
ENCODING 239
SWIDTH 615 0
DWIDTH 8 0
BBX 8 12 0 -2
BITMAP
6c00
0000
0000
1000
0000
1000
1000
1000
1000
1000
0000
0000
ENDCHAR
STARTCHAR C360
ENCODING 240
SWIDTH 615 0
DWIDTH 8 0
BBX 8 12 0 -2
BITMAP
0000
1400
0800
1400
0200
3a00
4200
4200
4200
3c00
0000
0000
ENDCHAR
STARTCHAR C361
ENCODING 241
SWIDTH 615 0
DWIDTH 8 0
BBX 8 12 0 -2
BITMAP
0000
3200
4c00
0000
3c00
4200
4200
4200
4200
4200
0000
0000
ENDCHAR
STARTCHAR C362
ENCODING 242
SWIDTH 615 0
DWIDTH 8 0
BBX 8 12 0 -2
BITMAP
2000
1800
0000
0000
3c00
4200
4200
4200
4200
3c00
0000
0000
ENDCHAR
STARTCHAR C363
ENCODING 243
SWIDTH 615 0
DWIDTH 8 0
BBX 8 12 0 -2
BITMAP
0800
3000
0000
0000
3c00
4200
4200
4200
4200
3c00
0000
0000
ENDCHAR
STARTCHAR C364
ENCODING 244
SWIDTH 615 0
DWIDTH 8 0
BBX 8 12 0 -2
BITMAP
3800
4400
0000
0000
3c00
4200
4200
4200
4200
3c00
0000
0000
ENDCHAR
STARTCHAR C365
ENCODING 245
SWIDTH 615 0
DWIDTH 8 0
BBX 8 12 0 -2
BITMAP
3200
4c00
0000
0000
3c00
4200
4200
4200
4200
3c00
0000
0000
ENDCHAR
STARTCHAR C366
ENCODING 246
SWIDTH 615 0
DWIDTH 8 0
BBX 8 12 0 -2
BITMAP
6c00
0000
0000
0000
3c00
4200
4200
4200
4200
3c00
0000
0000
ENDCHAR
STARTCHAR C367
ENCODING 247
SWIDTH 615 0
DWIDTH 8 0
BBX 8 12 0 -2
BITMAP
0000
0000
0000
0000
3800
0000
fe00
0000
3800
0000
0000
0000
ENDCHAR
STARTCHAR C370
ENCODING 248
SWIDTH 615 0
DWIDTH 8 0
BBX 8 12 0 -2
BITMAP
0000
0000
0000
0000
3a00
4400
4a00
5200
2200
5c00
0000
0000
ENDCHAR
STARTCHAR C371
ENCODING 249
SWIDTH 615 0
DWIDTH 8 0
BBX 8 12 0 -2
BITMAP
2000
1800
0000
0000
4200
4200
4200
4200
4200
3c00
0000
0000
ENDCHAR
STARTCHAR C372
ENCODING 250
SWIDTH 615 0
DWIDTH 8 0
BBX 8 12 0 -2
BITMAP
0800
3000
0000
0000
4200
4200
4200
4200
4200
3c00
0000
0000
ENDCHAR
STARTCHAR C373
ENCODING 251
SWIDTH 615 0
DWIDTH 8 0
BBX 8 12 0 -2
BITMAP
3800
4400
0000
0000
4200
4200
4200
4200
4200
3c00
0000
0000
ENDCHAR
STARTCHAR C374
ENCODING 252
SWIDTH 615 0
DWIDTH 8 0
BBX 8 12 0 -2
BITMAP
6c00
0000
0000
0000
4200
4200
4200
4200
4200
3c00
0000
0000
ENDCHAR
STARTCHAR C375
ENCODING 253
SWIDTH 615 0
DWIDTH 8 0
BBX 8 12 0 -2
BITMAP
0400
1800
0000
0000
4200
4200
4200
4200
4200
3a00
0200
3c00
ENDCHAR
STARTCHAR C376
ENCODING 254
SWIDTH 615 0
DWIDTH 8 0
BBX 8 12 0 -2
BITMAP
0000
8000
8000
9c00
a200
8200
a200
9c00
8000
8000
0000
0000
ENDCHAR
ENDFONT
